<svg id="Capa_1" enable-background="new 0 0 512 512" height="512" viewBox="0 0 512 512" width="512" xmlns="http://www.w3.org/2000/svg"><g><path d="m504.485 408.355h-59.11c6.559-9.235 10.559-22.022 10.559-36.358 0-16.91-5.568-31.661-14.333-40.971 5.339-1.963 10.5-4.544 15.374-7.753 21.058-13.863 33.629-37.19 33.629-62.401 0-29.879-17.735-56.816-45.18-68.626l-41.684-17.936c-3.816-1.639-8.233.12-9.874 3.932-1.64 3.813.12 8.233 3.932 9.874l41.684 17.936c21.926 9.433 36.092 30.952 36.092 54.821 0 20.139-10.042 38.773-26.864 49.847-16.819 11.072-37.905 12.935-56.405 4.973l-66.89-28.783v-47.744l59.191 25.47c3.72 1.627 8.232-.082 9.874-3.932 1.64-3.813-.12-8.233-3.932-9.874l-197.348-84.918v-65.836l176.96 76.146c3.813 1.636 8.233-.122 9.874-3.932 1.64-3.813-.12-8.233-3.932-9.874l-50.685-21.809v-65.14c4.356-5.518 6.966-12.476 6.966-20.035 0-17.867-14.535-32.402-32.402-32.402s-32.402 14.535-32.402 32.402c0 7.56 2.61 14.517 6.966 20.035v43.25l-81.344-35.002v-7.038h8.516c3.238 0 6.111-2.074 7.132-5.147 1.02-3.073-.043-6.454-2.638-8.39l-82.614-61.647c-2.665-1.99-6.323-1.99-8.988 0l-82.612 61.646c-2.595 1.936-3.658 5.317-2.638 8.39 1.021 3.072 3.894 5.147 7.132 5.147h8.516v94.183 54.564c0 4.151 3.364 7.515 7.515 7.515s7.515-3.364 7.515-7.515v-47.049h16.761v229.981h-16.762v-152.873c0-4.151-3.364-7.515-7.515-7.515s-7.515 3.364-7.515 7.515v152.874h-37.491c-4.151 0-7.515 3.364-7.515 7.515v88.615c0 4.15 3.364 7.514 7.515 7.514h496.971c4.151 0 7.515-3.364 7.515-7.515v-88.615c-.001-4.151-3.365-7.515-7.516-7.515zm-194.1-274.215-20.814-8.956v-39.076c3.269 1.112 6.767 1.724 10.407 1.724s7.138-.612 10.407-1.724zm-10.406-96.082c9.579 0 17.373 7.794 17.373 17.373s-7.794 17.372-17.373 17.372-17.373-7.793-17.373-17.372 7.793-17.373 17.373-17.373zm119.177 297.581c11.79 0 21.75 16.65 21.75 36.358s-9.96 36.358-21.75 36.358-21.75-16.65-21.75-36.358 9.96-36.358 21.75-36.358zm-108.771 72.716h-20.814v-38.307l20.814 8.956zm-20.814-184.612 20.814 8.956v47.746l-20.814-8.956zm-10.484 59.597 107.277 46.16c2.917 1.255 5.89 2.291 8.892 3.158-7.921 9.355-12.879 23.386-12.879 39.34 0 8.436 1.393 16.33 3.87 23.286l-121.374-52.227c-21.926-9.433-36.092-30.952-36.092-54.821 0-28.03 19.186-51.743 45.761-58.093v46.294c0 3.002 1.787 5.716 4.545 6.903zm99.511 125.015h-53.183v-22.884zm-192.914-69.48c4.151 0 7.515-3.364 7.515-7.515v-149.086l77.47 33.335c-33.077 8.071-56.917 37.669-56.917 72.627 0 29.879 17.735 56.816 45.18 68.626l15.611 6.717v44.775h-81.344v-46.936c0-4.151-3.364-7.515-7.515-7.515s-7.515 3.364-7.515 7.515v46.936h-16.761v-229.98h16.761v152.986c0 4.151 3.364 7.515 7.515 7.515zm-39.305-160.501v22.569h-54.552v-22.569zm-41.955-15.029v-86.668h29.358v86.668zm41.955 52.628v16.965h-54.495v-16.965zm0 31.994v21.942h-54.552v-21.942zm0 36.972v16.965h-54.495v-16.965zm0 31.994v21.942h-54.552v-21.942zm-54.495 36.971h54.495v16.965h-54.495zm56.927-190.559v-86.668h29.358v86.668zm-89.685-101.698 59.977-44.755 59.977 44.755zm.91 101.698v-86.668h29.358v86.668zm31.791 222.553h54.552v22.457h-54.552zm405.144 37.487v18.758c-8.041 1.334-15.654 4.782-21.973 10.046-11.51 9.589-28.221 9.591-39.733 0-8.458-7.046-19.182-10.828-30.174-10.668-10.975-.143-21.714 3.623-30.172 10.668-11.514 9.59-28.225 9.59-39.735 0-8.262-6.883-18.734-10.673-29.487-10.673s-21.225 3.791-29.485 10.673c-11.513 9.59-28.222 9.591-39.735 0-8.458-7.046-19.169-10.793-30.173-10.668-10.989-.143-21.715 3.623-30.174 10.668-11.511 9.592-28.222 9.591-39.733 0-8.263-6.883-18.735-10.673-29.487-10.673-10.753 0-21.226 3.791-29.487 10.673-11.51 9.59-28.22 9.59-39.734.001-6.512-5.425-14.374-8.921-22.659-10.163v-18.641h481.941zm-481.942 73.586v-39.643c4.756 1.075 9.241 3.244 13.039 6.409 17.086 14.233 41.887 14.233 58.974 0 5.566-4.638 12.621-7.192 19.867-7.192 7.245 0 14.3 2.554 19.867 7.192 17.087 14.233 41.889 14.233 58.974 0 5.721-4.767 12.991-7.315 20.421-7.187.088.002.178.002.266 0 7.465-.125 14.698 2.42 20.421 7.187 17.083 14.233 41.887 14.233 58.974 0 5.567-4.638 12.621-7.192 19.866-7.192 7.246 0 14.3 2.554 19.867 7.192 17.087 14.233 41.888 14.233 58.975 0 5.721-4.767 12.997-7.315 20.42-7.187.088.002.178.002.266 0 7.431-.104 14.7 2.42 20.421 7.187 8.543 7.116 19.015 10.675 29.486 10.675 10.473 0 20.944-3.559 29.487-10.675 3.609-3.007 7.846-5.132 12.352-6.258v39.493h-481.943z"/></g></svg>